<?xml version="1.0" standalone="no"?>
<!DOCTYPE svg PUBLIC "-//W3C//DTD SVG 20010904//EN"
 "http://www.w3.org/TR/2001/REC-SVG-20010904/DTD/svg10.dtd">
<svg version="1.0" xmlns="http://www.w3.org/2000/svg"
 width="900.000000pt" height="447.000000pt" viewBox="0 0 900.000000 447.000000"
 preserveAspectRatio="xMidYMid meet">
<metadata>
Created by potrace 1.16, written by Peter Selinger 2001-2019
</metadata>
<g transform="translate(0.000000,447.000000) scale(0.100000,-0.100000)"
fill="#000000" stroke="none">
<path d="M1891 4450 c-874 -136 -1584 -769 -1817 -1619 -59 -217 -77 -377 -71
-645 5 -244 18 -346 72 -543 71 -265 212 -548 384 -770 650 -841 1797 -1108
2756 -642 998 484 1488 1646 1140 2704 -190 579 -584 1034 -1131 1308 -189 94
-369 154 -599 198 -163 32 -558 36 -734 9z m234 -290 c-210 -33 -381 -85 -560
-169 -516 -244 -909 -722 -1049 -1276 -75 -301 -76 -651 -2 -944 197 -777 823
-1336 1631 -1456 l90 -13 -72 -1 c-160 -2 -420 48 -601 115 -480 180 -860 525
-1082 986 -251 520 -253 1141 -6 1663 195 410 505 723 911 920 250 122 533
192 780 193 l70 0 -110 -18z m205 -282 c-277 -58 -368 -86 -522 -163 -1013
-503 -1230 -1849 -428 -2645 253 -251 540 -394 940 -469 49 -9 43 -9 -45 -5
-643 33 -1235 492 -1444 1119 -63 188 -75 277 -75 525 0 197 3 238 22 330 153
705 724 1227 1432 1309 41 5 95 8 120 9 l45 0 -45 -10z m168 -283 c-2 -3 -42
-12 -88 -21 -450 -85 -844 -412 -1009 -837 -202 -523 -75 -1096 328 -1479 194
-185 412 -297 691 -357 l95 -21 -90 5 c-182 10 -394 75 -560 172 -239 138
-443 357 -554 594 -85 181 -120 324 -128 526 -9 232 23 414 111 612 166 378
509 667 914 770 107 28 307 52 290 36z m132 -295 c-8 -5 -25 -10 -36 -10 -43
0 -201 -52 -289 -94 -270 -130 -475 -375 -559 -668 -103 -359 -7 -745 252
-1020 150 -159 310 -251 537 -309 122 -31 109 -36 -35 -14 -446 68 -800 411
-885 858 -19 101 -19 280 0 390 78 447 459 809 910 866 103 13 123 13 105 1z
m225 -410 c73 -19 140 -50 192 -90 l23 -18 -50 -66 -50 -66 -41 30 c-201 145
-476 77 -584 -145 -79 -162 -78 -389 2 -555 37 -77 127 -162 200 -191 109 -42
269 -28 371 33 l32 20 0 164 0 164 -140 0 -140 0 0 70 0 70 220 0 220 0 0
-274 0 -275 -32 -24 c-50 -38 -148 -84 -219 -103 -96 -26 -264 -25 -354 3
-245 77 -395 310 -395 617 0 278 117 494 323 596 45 22 102 44 127 49 83 16
212 12 295 -9z m1105 -9 c69 -22 190 -88 190 -104 0 -8 -48 -77 -86 -126 -2
-2 -24 11 -50 28 -211 140 -456 87 -456 -99 0 -98 57 -151 252 -231 285 -116
370 -204 370 -379 0 -162 -82 -276 -238 -332 -68 -25 -226 -29 -312 -9 -74 18
-207 82 -252 123 l-38 33 51 62 51 62 49 -39 c209 -165 498 -132 517 60 6 63
-2 91 -35 130 -37 45 -90 76 -206 122 -299 118 -379 200 -379 385 0 75 4 92
31 148 45 91 118 148 233 180 71 20 222 13 308 -14z"/>
<path d="M4049 4277 c-115 -60 -150 -214 -75 -325 79 -117 264 -126 353 -18
91 111 58 282 -68 346 -55 29 -152 27 -210 -3z m178 -48 c29 -14 52 -35 68
-63 101 -172 -126 -343 -258 -197 -62 68 -62 154 0 222 54 60 118 73 190 38z"/>
<path d="M4070 4086 l0 -116 30 0 c28 0 30 3 30 35 0 19 4 35 9 35 6 0 22 -16
37 -35 21 -28 33 -35 60 -35 39 0 41 5 14 40 -24 30 -25 44 -5 60 8 7 15 29
15 50 0 54 -23 70 -114 77 l-76 6 0 -117z"/>
<path d="M4808 2846 c-97 -39 -179 -74 -182 -77 -10 -10 26 -169 39 -169 6 0
67 23 135 50 68 28 127 50 132 50 4 0 8 -207 8 -460 l0 -460 -160 0 -160 0 0
-85 0 -85 400 0 400 0 0 85 0 85 -140 0 -140 0 0 570 0 570 -77 -1 c-73 -1
-90 -6 -255 -73z"/>
<path d="M6880 583 c0 -111 -1 -115 -18 -100 -52 47 -157 60 -228 28 -52 -24
-108 -90 -124 -148 -16 -55 -16 -143 0 -201 15 -57 79 -126 135 -148 65 -24
152 -16 199 20 l36 27 0 -25 c0 -26 1 -26 75 -26 l75 0 0 345 0 345 -75 0 -75
0 0 -117z m-35 -223 c27 -28 30 -36 30 -96 0 -63 -1 -67 -37 -100 -51 -46 -95
-47 -145 -1 -31 29 -37 41 -40 88 -4 45 -1 60 19 89 46 68 116 76 173 20z"/>
<path d="M4640 345 l0 -335 75 0 75 0 0 130 0 130 130 0 130 0 0 -130 0 -130
75 0 75 0 0 335 0 335 -75 0 -75 0 0 -135 0 -135 -130 0 -130 0 0 135 0 135
-75 0 -75 0 0 -335z"/>
<path d="M5494 519 c-61 -17 -128 -71 -157 -126 -75 -139 -22 -304 118 -369
70 -33 180 -33 251 0 88 41 154 144 154 241 0 109 -80 219 -181 249 -57 17
-136 19 -185 5z m130 -133 c72 -30 100 -106 67 -180 -35 -81 -129 -100 -192
-40 -71 68 -52 181 36 220 38 17 49 17 89 0z"/>
<path d="M6170 519 c-14 -5 -37 -22 -52 -36 l-28 -27 0 32 0 32 -75 0 -75 0 0
-255 0 -255 74 0 74 0 4 158 c2 130 6 163 21 185 32 50 105 48 132 -3 11 -22
15 -65 15 -185 l0 -155 76 0 75 0 -3 209 c-3 229 -5 235 -71 285 -31 23 -128
32 -167 15z"/>
<path d="M7944 516 c-17 -8 -40 -27 -52 -42 l-21 -29 -1 38 0 37 -75 0 -75 0
0 -255 0 -255 75 0 75 0 0 108 c0 59 5 125 11 146 15 54 57 94 108 102 l41 7
0 78 0 79 -27 0 c-16 -1 -42 -7 -59 -14z"/>
<path d="M8220 524 c-14 -3 -49 -12 -78 -20 -44 -12 -52 -18 -47 -32 3 -9 12
-36 18 -60 11 -40 14 -43 37 -37 14 4 57 9 95 12 61 4 73 2 98 -17 15 -12 27
-29 27 -38 0 -15 -12 -17 -97 -14 -86 3 -103 0 -142 -20 -55 -28 -81 -74 -81
-143 0 -63 26 -107 79 -135 54 -27 143 -27 196 0 47 24 45 24 45 5 0 -12 15
-15 75 -15 l75 0 0 183 c0 156 -3 188 -19 222 -21 46 -54 79 -94 94 -33 13
-150 22 -187 15z m152 -312 c15 -15 -2 -61 -29 -82 -32 -25 -99 -27 -125 -3
-33 29 -17 76 32 96 20 9 111 0 122 -11z"/>
<path d="M8725 518 c-53 -20 -83 -47 -101 -93 -41 -108 14 -187 156 -225 68
-18 93 -36 80 -60 -17 -31 -85 -27 -154 9 l-56 30 -31 -45 c-17 -25 -28 -52
-25 -60 11 -30 116 -68 197 -72 141 -7 209 46 209 162 0 54 -3 61 -37 96 -26
25 -60 44 -105 59 -37 12 -78 31 -90 42 -23 19 -23 19 -3 35 24 18 70 12 127
-17 20 -10 39 -19 42 -19 7 0 56 91 56 105 0 38 -199 78 -265 53z"/>
<path d="M7142 311 c3 -233 5 -239 79 -289 29 -20 44 -23 100 -20 54 3 73 9
103 31 l36 28 0 -25 c0 -26 1 -26 75 -26 l75 0 0 255 0 255 -74 0 -75 0 -3
-164 c-3 -158 -4 -165 -27 -190 -26 -27 -67 -34 -101 -16 -31 16 -40 67 -40
221 l0 149 -76 0 -75 0 3 -209z"/>
</g>
</svg>
